<?xml version="1.0" ?><svg height="400" id="svg" style="display: block;" version="1.1" width="400" xmlns="http://www.w3.org/2000/svg" xmlns:xlink="http://www.w3.org/1999/xlink"><g id="svgg"><path d="" fill="#000000" fill-rule="evenodd" id="path0" stroke="none"/><path d="" fill="#2b2b2b" fill-rule="evenodd" id="path1" stroke="none"/><path d="M183.984 0.433 C 62.571 10.738,-21.356 124.141,4.528 242.920 C 14.064 286.675,37.406 324.579,73.438 354.816 C 99.113 376.362,137.473 393.255,170.703 397.650 C 172.529 397.891,174.435 398.159,174.938 398.244 C 184.548 399.871,215.452 399.871,225.062 398.244 C 225.565 398.159,227.471 397.891,229.297 397.650 C 262.527 393.255,300.887 376.362,326.563 354.816 C 333.699 348.827,340.231 342.748,344.961 337.695 C 350.680 331.585,351.538 330.622,354.525 326.953 C 379.906 295.780,394.089 262.099,399.102 221.094 C 399.982 213.899,400.108 187.124,399.294 180.273 C 387.559 81.435,313.491 8.759,216.016 0.439 C 210.963 0.008,189.046 0.004,183.984 0.433 M211.523 16.806 C 357.080 26.449,434.234 193.736,346.729 309.961 C 265.218 418.225,97.390 403.445,36.245 282.617 C -27.572 156.512,70.703 7.478,211.523 16.806 M127.806 96.446 C 124.075 97.734,121.510 101.103,121.493 104.736 C 121.485 106.310,123.746 117.808,133.797 167.320 C 136.024 178.293,136.165 180.078,134.806 180.078 C 133.301 180.078,133.821 182.268,124.963 138.672 C 123.675 132.334,122.460 126.323,122.262 125.314 C 119.540 111.408,101.294 114.797,103.735 128.756 C 104.031 130.450,105.689 138.779,107.420 147.266 C 109.151 155.752,111.262 166.123,112.111 170.313 C 112.960 174.502,115.423 186.631,117.585 197.266 C 123.044 224.112,122.778 222.625,122.239 223.274 C 120.423 225.463,120.018 224.438,117.217 210.547 C 114.584 197.492,114.016 195.866,111.388 193.862 C 106.425 190.076,99.389 192.097,97.128 197.957 C 96.187 200.396,96.298 201.586,98.433 211.914 C 99.499 217.070,100.910 224.014,101.568 227.344 C 103.591 237.579,104.211 239.826,106.065 243.637 C 109.015 249.702,114.501 254.502,125.392 260.547 C 146.220 272.107,147.394 273.284,149.868 285.085 C 152.077 295.624,151.963 295.552,161.579 292.419 C 178.794 286.811,182.047 286.115,195.508 285.163 C 207.904 284.287,208.008 284.204,206.435 276.402 L 205.575 272.140 206.889 268.314 C 208.379 263.977,208.427 263.672,207.624 263.672 C 203.881 263.672,193.859 256.623,189.886 251.197 C 186.775 246.948,170.854 215.167,170.283 212.065 C 168.829 204.179,174.872 196.137,182.790 195.419 C 184.092 195.301,185.156 195.131,185.156 195.042 C 185.156 194.953,183.421 191.505,181.301 187.381 C 164.299 154.315,157.101 139.598,156.819 137.325 C 156.070 131.281,159.481 124.608,164.436 122.422 C 165.305 122.038,166.016 121.611,166.016 121.472 C 166.016 120.200,163.814 110.816,163.261 109.729 C 160.073 103.465,151.157 103.087,147.065 109.042 C 144.904 112.186,144.812 111.431,151.211 143.131 C 157.247 173.034,157.285 173.271,156.160 173.977 C 154.894 174.770,154.250 173.413,153.090 167.511 C 152.485 164.433,150.219 153.213,148.054 142.578 C 145.889 131.943,143.136 118.408,141.938 112.500 C 139.535 100.658,139.414 100.305,137.039 98.273 C 134.221 95.861,131.220 95.267,127.806 96.446 M180.377 101.561 C 176.428 102.750,173.828 106.421,173.828 110.807 C 173.828 113.095,175.267 116.049,201.890 168.416 C 208.253 180.933,208.486 181.641,206.234 181.641 C 205.284 181.641,205.363 181.784,193.940 159.180 C 177.632 126.909,178.633 128.686,175.853 127.052 C 170.742 124.047,163.963 126.856,162.269 132.681 C 161.225 136.274,161.570 137.280,168.540 150.977 C 172.038 157.852,178.813 171.211,183.594 180.664 C 188.376 190.117,195.429 204.028,199.269 211.578 C 206.279 225.360,206.727 226.461,205.685 227.327 C 204.597 228.229,203.804 227.039,198.101 215.940 C 191.349 202.800,191.509 203.057,189.261 201.739 C 182.966 198.050,175.355 202.471,175.286 209.857 C 175.266 211.967,175.532 212.645,179.263 220.024 C 181.461 224.372,185.206 231.797,187.584 236.523 C 196.742 254.728,199.541 256.828,222.174 262.469 C 242.207 267.462,244.092 268.601,249.161 278.765 C 253.640 287.747,254.801 288.394,259.570 284.560 C 262.604 282.122,272.587 275.075,275.590 273.252 C 279.559 270.843,284.097 269.167,298.338 264.852 C 304.220 263.070,304.749 261.672,301.706 255.945 L 299.896 252.539 299.817 243.164 C 299.714 230.834,298.537 224.478,294.427 214.063 C 292.073 208.095,246.624 117.652,245.207 116.115 C 240.710 111.237,232.137 112.947,229.504 119.247 C 227.900 123.087,227.922 123.147,238.867 144.761 C 249.361 165.482,249.301 165.344,247.999 166.041 C 246.687 166.743,246.546 166.499,234.367 142.383 C 228.074 129.922,221.531 116.972,219.827 113.606 C 218.122 110.239,216.260 106.966,215.688 106.333 C 210.836 100.954,201.599 103.247,199.618 110.320 C 198.598 113.964,197.290 111.019,218.449 152.708 C 226.923 169.404,227.125 169.933,225.121 170.234 C 224.023 170.399,224.517 171.278,213.449 149.414 C 194.350 111.683,191.200 105.557,190.277 104.352 C 188.325 101.806,183.800 100.530,180.377 101.561 " fill="#353535" fill-rule="evenodd" id="path2" stroke="none"/><path d="" fill="#404040" fill-rule="evenodd" id="path3" stroke="none"/><path d="" fill="#555555" fill-rule="evenodd" id="path4" stroke="none"/></g></svg>