<?xml version="1.0" encoding="iso-8859-1"?>
<!-- Generator: Adobe Illustrator 19.0.0, SVG Export Plug-In . SVG Version: 6.00 Build 0)  -->
<svg version="1.1" id="Capa_1" xmlns="http://www.w3.org/2000/svg" xmlns:xlink="http://www.w3.org/1999/xlink" x="0px" y="0px"
	 viewBox="0 0 512 512" style="enable-background:new 0 0 512 512;" xml:space="preserve">
<g>
	<g>
		<path d="M461.391,157.9c-18.148-36.666-46.635-67.701-82.381-89.749C342.357,45.542,299.821,33.591,256,33.591
			c-60.584,0-117.562,22.523-160.437,63.418C52.59,138,28.924,192.523,28.924,250.534c0,103.84,77.343,193.423,183.905,213.008
			c0.452,0.084,0.906,0.124,1.356,0.124c2.105,0,4.14-0.889,5.576-2.485c9.462-10.523,17.082-27.558,22.646-50.633
			c5.604-23.241,7.771-46.73,8.601-62.343c0.143-2.687-1.164-5.244-3.425-6.702s-5.13-1.593-7.519-0.354l-19.273,10.001
			c-3.676,1.908-5.11,6.435-3.203,10.112c1.908,3.676,6.434,5.109,10.112,3.203l7.394-3.837
			c-2.89,32.759-10.336,69.072-23.878,87.322c-97.197-19.87-167.291-102.225-167.291-197.415
			c0-111.352,95.137-201.943,212.075-201.943c41.039,0,80.852,11.178,115.135,32.325c33.351,20.572,59.912,49.492,76.812,83.636
			c1.837,3.711,6.334,5.232,10.049,3.395C461.708,166.111,463.228,161.612,461.391,157.9z"/>
	</g>
</g>
<g>
	<g>
		<path d="M436.893,77.497C388.557,31.391,324.315,6,256,6C179.411,6,107.467,38.367,58.615,94.801
			c-2.711,3.132-2.37,7.868,0.762,10.58c3.132,2.71,7.869,2.368,10.579-0.762C115.957,51.478,183.768,21,256,21
			c64.441,0,125.007,23.919,170.54,67.351C471.977,131.692,497,189.289,497,250.536c0,58.2-22.911,113.708-64.513,156.298
			c-39.635,40.575-92.677,65.911-150.097,71.865v-12.693c53.767-5.95,103.395-30.028,140.391-68.257
			c38.881-40.178,60.294-92.459,60.294-147.213c0-20.636-3.03-41.055-9.006-60.689c-1.206-3.963-5.395-6.197-9.359-4.991
			c-3.962,1.206-6.197,5.396-4.991,9.359c5.544,18.218,8.356,37.167,8.356,56.321c0,50.84-19.914,99.417-56.073,136.781
			c-36.036,37.237-84.946,60.109-137.72,64.399c-3.894,0.316-6.892,3.569-6.892,7.476v27.692c0,2.082,0.866,4.07,2.39,5.489
			c1.393,1.297,3.22,2.011,5.11,2.011c0.178,0,0.357-0.007,0.537-0.02c64.158-4.596,123.747-31.96,167.791-77.048
			C487.572,371.907,512,312.677,512,250.536C512,185.148,485.327,123.695,436.893,77.497z"/>
	</g>
</g>
<g>
	<g>
		<path d="M423.474,193.558c-2.123-3.643-6.422-5.398-10.451-4.264c-7.549,2.119-26.095,6.225-35.268-1.391
			c-4.914-4.08-6.915-11.673-5.945-22.577c0.323-3.681-1.525-7.224-4.708-9.027c-3.124-1.769-7.022-1.548-9.954,0.579L315.674,187.2
			c-0.314,0.231-1.053,0.77-2.127,0.108c-0.39-0.239-1.637-1.181-1.3-3.241l8.654-53.421c0.6-3.647-0.979-7.322-4.022-9.364
			c-2.979-2-6.879-2.077-9.913-0.209c-3.12,1.903-9.153,4.842-14.517,3.127c-4.214-1.349-7.844-5.535-10.788-12.442l-17.143-40.204
			c-1.462-3.434-4.794-5.658-8.488-5.669c-0.009,0-0.017,0-0.026,0c-3.688,0-7.024,2.208-8.525,5.68
			c-2.32,5.469-7.328,17.204-15.95,37.409l-1.188,2.784c-2.945,6.908-6.576,11.095-10.791,12.443
			c-5.364,1.716-11.387-1.223-14.504-3.128c-3.098-1.893-6.896-1.814-9.909,0.202c-3.032,2.029-4.62,5.691-4.039,9.356l8.675,53.431
			c0.333,2.064-0.922,3.009-1.314,3.249c-1.073,0.658-1.809,0.118-2.122-0.109l-41.495-30.332c-2.911-2.112-6.811-2.333-9.939-0.563
			c-3.185,1.803-5.035,5.345-4.712,9.035c0.971,10.896-1.027,18.488-5.939,22.568c-9.171,7.615-27.717,3.509-35.264,1.39
			c-4.089-1.148-8.285,0.56-10.445,4.251c-2.178,3.721-1.579,8.441,1.465,11.485c11.427,11.393,16.978,21.838,16.498,31.047
			c-0.438,8.42-6.014,14.131-9.298,16.785c-2.558,2.067-3.855,5.391-3.387,8.672c0.466,3.263,2.625,6.072,5.634,7.332l41.083,17.203
			c0.859,0.36,1.104,1.287,1.169,1.669c0.055,0.321,0.167,1.381-0.556,2.178l-18.879,13.743c-2.612,1.907-4.041,4.99-3.821,8.248
			c0.219,3.254,2.044,6.113,4.885,7.652c3.859,2.087,6.239,4.863,7.274,8.49c2.833,9.927-4.233,23.903-7.399,29.444
			c-1.981,3.46-1.574,7.818,1.015,10.843c2.572,3.005,6.608,4.041,10.277,2.639c17.783-6.766,26.465-5.132,30.618-2.572
			c4.529,2.793,5.71,8.127,6.009,11.034c0.312,3.139,2.147,5.889,4.91,7.357c2.699,1.431,5.909,1.435,8.607,0.008l14.999-7.782
			c3.676-1.908,5.11-6.435,3.203-10.112c-1.908-3.678-6.437-5.11-10.111-3.203l-8.411,4.364c-1.74-5.005-5.052-10.562-11.333-14.434
			c-7.773-4.793-18.163-5.683-30.999-2.673c3.41-8.728,5.796-19.377,3.041-29.03c-1.417-4.965-3.997-9.208-7.701-12.682
			l12.866-9.367c0.227-0.162,0.426-0.319,0.622-0.481c0.084-0.07,0.167-0.143,0.249-0.217c4.422-4.008,6.449-9.982,5.421-15.98
			c-1.007-5.878-4.803-10.726-10.157-12.971l-33.374-13.975c4.121-5.019,8.042-12.151,8.524-21.403
			c0.505-9.683-2.889-19.688-10.11-29.873c16.751,1.729,26.732-2.783,32.46-7.54c6.612-5.49,10.412-13.451,11.358-23.743
			l32.293,23.606c5.653,4.132,12.861,4.434,18.809,0.789c6.223-3.813,9.476-11.045,8.285-18.435l-7.014-43.2
			c4.891,1.39,10.649,1.911,16.552,0.023c8.554-2.735,15.29-9.75,20.021-20.846l1.187-2.782c4.501-10.548,8.018-18.788,10.679-25.03
			l11.857,27.81c4.73,11.095,11.464,18.108,20.014,20.845c5.904,1.892,11.666,1.368,16.563-0.022l-6.997,43.195
			c-1.205,7.377,2.036,14.612,8.255,18.432c5.953,3.655,13.169,3.357,18.829-0.78l32.287-23.601
			c0.949,10.292,4.75,18.25,11.362,23.74c5.729,4.756,15.705,9.266,32.455,7.54c-7.221,10.188-10.614,20.195-10.109,29.877
			c0.482,9.247,4.398,16.374,8.523,21.397l-33.379,13.977c-5.352,2.244-9.147,7.092-10.154,12.97
			c-1.028,5.998,0.999,11.972,5.421,15.98c0.082,0.074,0.165,0.146,0.249,0.217c0.196,0.162,0.395,0.319,0.563,0.439l12.927,9.41
			c-3.702,3.474-6.28,7.715-7.696,12.679c-2.753,9.653-0.367,20.302,3.044,29.032c-12.839-3.008-23.236-2.12-31.01,2.674
			c-6.395,3.943-9.712,9.633-11.427,14.715l-57.919-27.095c-2.281-1.067-4.945-0.919-7.093,0.396
			c-2.147,1.314-3.493,3.619-3.581,6.136c-0.853,24.451-6.096,71.436-14.134,110.405c-2.088,8.739-5.003,18.685-7.513,25.42
			c-2.19-3.278-5.191-6.617-10.023-7.165C106.277,464.789,15,366.807,15,250.536c0-41.868,11.945-82.838,34.544-118.48
			c2.218-3.499,1.18-8.133-2.318-10.351c-3.499-2.219-8.132-1.181-10.35,2.317C12.751,162.07,0,205.818,0,250.536
			c0,123.503,96.361,227.614,224.359,242.676c0.545,0.729,1.284,1.959,1.815,2.842c2.293,3.815,5.758,9.58,12.37,9.936
			c0.135,0.007,0.269,0.011,0.403,0.011c1.865,0,3.67-0.696,5.055-1.96c6.479-5.913,12.473-27.897,15.469-40.475
			c0.018-0.074,0.034-0.147,0.049-0.222c7.208-34.909,12.118-74.982,13.876-101.774l54.151,25.331
			c2.65,1.326,5.766,1.299,8.399-0.094c2.771-1.465,4.612-4.219,4.923-7.342c0.301-2.931,1.481-8.264,6.011-11.057
			c4.154-2.562,12.839-4.195,30.619,2.568c3.677,1.404,7.715,0.369,10.286-2.636c2.588-3.025,2.996-7.383,1.019-10.836
			c-3.17-5.549-10.238-19.527-7.406-29.455c1.034-3.625,3.411-6.401,7.245-8.476c2.84-1.523,4.674-4.369,4.907-7.612
			c0.234-3.256-1.182-6.349-3.829-8.303L370.85,289.92c-0.723-0.797-0.612-1.858-0.557-2.18c0.065-0.382,0.31-1.309,1.167-1.668
			l41.084-17.203c3.021-1.265,5.184-4.084,5.643-7.359c0.461-3.287-0.85-6.609-3.395-8.647c-3.282-2.653-8.854-8.361-9.294-16.782
			c-0.48-9.209,5.069-19.657,16.483-31.04C425.034,202.011,425.648,197.289,423.474,193.558z"/>
	</g>
</g>
<g>
</g>
<g>
</g>
<g>
</g>
<g>
</g>
<g>
</g>
<g>
</g>
<g>
</g>
<g>
</g>
<g>
</g>
<g>
</g>
<g>
</g>
<g>
</g>
<g>
</g>
<g>
</g>
<g>
</g>
</svg>
