
		<svg xmlns="http://www.w3.org/2000/svg" xmlns:xlink="http://www.w3.org/1999/xlink" version="1.1" width="3095.693779904306" height="957.7095725319602">
			
			<g transform="scale(4.784688995215311) translate(10, 10)">
				<defs id="SvgjsDefs1706"/><g id="SvgjsG1707" featureKey="root" fill="#fff" transform="matrix(1,0,0,1,0,0)"/><g id="SvgjsG1708" featureKey="symbol1" fill="#fff" transform="matrix(1.6129032258064515,0,0,1.6129032258064515,15,15)"><path d="M23.8,71.4c0.2,0.6,0.4,1.2,0.7,1.8c4.9,11.6,16.4,19.7,29.9,19.7l36.3,0.2L46.3,48.9L23.8,71.4z"/><path d="M69.2,21.5c-0.2-0.6-0.4-1.2-0.7-1.8C63.6,8.1,52.1,0,38.7,0H2.2l44.3,44.3L69.2,21.5z"/><path d="M21.3,23.9c-0.6,0.2,0-0.8-0.6-0.6C9.1,28.3,0,40.8,0,54.2l0,36.5l44.1-44.1L21.3,23.9z"/><path d="M48.7,46.5l22.7,22.7c0.6-0.2,1.2-0.4,1.8-0.7C84.8,63.7,93,52.2,93,38.8l0-36.5L48.7,46.5z"/></g><g id="SvgjsG1709" featureKey="text1" fill="#fff" transform="matrix(3.6923437601365414,0,0,3.6923437601365414,175.27379040910714,12.688916040382733)"><path d="M4.68 10.14 q0.44 0.76 0.98 1.86 t1.1 2.31 t1.11 2.46 t1.01 2.31 q0.46 -1.06 1 -2.31 t1.1 -2.46 t1.1 -2.31 t0.98 -1.86 l2.28 0 q0.18 1.52 0.34 3.23 t0.29 3.5 t0.24 3.6 t0.19 3.53 l-2.48 0 q-0.08 -2.42 -0.19 -4.98 t-0.33 -4.96 q-0.22 0.46 -0.52 1.1 t-0.64 1.39 t-0.69 1.55 t-0.68 1.55 t-0.61 1.4 t-0.48 1.11 l-1.88 0 q-0.2 -0.46 -0.48 -1.12 t-0.61 -1.41 t-0.68 -1.55 t-0.69 -1.54 t-0.64 -1.39 t-0.52 -1.09 q-0.22 2.4 -0.33 4.96 t-0.19 4.98 l-2.48 0 q0.08 -1.72 0.19 -3.56 t0.24 -3.65 t0.29 -3.51 t0.34 -3.14 l2.34 0 z M18.64 18.82 q0 -1.38 0.41 -2.42 t1.09 -1.73 t1.56 -1.04 t1.8 -0.35 q2.16 0 3.37 1.34 t1.21 4 q0 0.2 -0.01 0.45 t-0.03 0.45 l-6.9 0 q0.1 1.26 0.89 1.95 t2.29 0.69 q0.88 0 1.61 -0.16 t1.15 -0.34 l0.32 1.98 q-0.2 0.1 -0.55 0.21 t-0.8 0.2 t-0.97 0.15 t-1.06 0.06 q-1.38 0 -2.4 -0.41 t-1.68 -1.14 t-0.98 -1.72 t-0.32 -2.17 z M25.66 17.740000000000002 q0 -0.5 -0.14 -0.95 t-0.41 -0.78 t-0.66 -0.52 t-0.93 -0.19 q-0.56 0 -0.98 0.21 t-0.71 0.55 t-0.45 0.78 t-0.22 0.9 l4.5 0 z M30.060000000000002 18.82 q0 -1.38 0.41 -2.42 t1.09 -1.73 t1.56 -1.04 t1.8 -0.35 q2.16 0 3.37 1.34 t1.21 4 q0 0.2 -0.01 0.45 t-0.03 0.45 l-6.9 0 q0.1 1.26 0.89 1.95 t2.29 0.69 q0.88 0 1.61 -0.16 t1.15 -0.34 l0.32 1.98 q-0.2 0.1 -0.55 0.21 t-0.8 0.2 t-0.97 0.15 t-1.06 0.06 q-1.38 0 -2.4 -0.41 t-1.68 -1.14 t-0.98 -1.72 t-0.32 -2.17 z M37.08 17.740000000000002 q0 -0.5 -0.14 -0.95 t-0.41 -0.78 t-0.66 -0.52 t-0.93 -0.19 q-0.56 0 -0.98 0.21 t-0.71 0.55 t-0.45 0.78 t-0.22 0.9 l4.5 0 z M42.18 24 l0 -13.86 l8.76 0 l0 2.14 l-6.24 0 l0 3.54 l5.54 0 l0 2.14 l-5.54 0 l0 6.04 l-2.52 0 z M55.52 24 l-2.42 0 l0 -10.46 l2.42 0 l0 10.46 z M55.78000000000001 10.48 q0 0.68 -0.44 1.08 t-1.04 0.4 q-0.62 0 -1.06 -0.4 t-0.44 -1.08 q0 -0.7 0.44 -1.1 t1.06 -0.4 q0.6 0 1.04 0.4 t0.44 1.1 z M58.60000000000001 13.88 q0.7 -0.2 1.82 -0.38 t2.48 -0.18 q1.28 0 2.14 0.35 t1.37 0.98 t0.72 1.52 t0.21 1.95 l0 5.88 l-2.42 0 l0 -5.5 q0 -0.84 -0.11 -1.43 t-0.36 -0.96 t-0.68 -0.54 t-1.05 -0.17 q-0.46 0 -0.96 0.06 t-0.74 0.1 l0 8.44 l-2.42 0 l0 -10.12 z M73.98 22.3 q1.12 0 1.7 -0.12 l0 -2.68 q-0.2 -0.06 -0.58 -0.12 t-0.84 -0.06 q-0.4 0 -0.81 0.06 t-0.74 0.22 t-0.53 0.45 t-0.2 0.73 q0 0.86 0.54 1.19 t1.46 0.33 z M73.78 13.28 q1.2 0 2.02 0.3 t1.31 0.84 t0.7 1.31 t0.21 1.69 l0 6.34 q-0.56 0.12 -1.69 0.29 t-2.55 0.17 q-0.94 0 -1.72 -0.18 t-1.33 -0.58 t-0.86 -1.04 t-0.31 -1.58 q0 -0.9 0.35 -1.52 t0.95 -1.01 t1.39 -0.56 t1.65 -0.17 q0.4 0 0.84 0.05 t0.94 0.17 l0 -0.4 q0 -0.42 -0.1 -0.8 t-0.35 -0.67 t-0.66 -0.45 t-1.03 -0.16 q-0.84 0 -1.54 0.12 t-1.14 0.28 l-0.3 -1.96 q0.46 -0.16 1.34 -0.32 t1.88 -0.16 z M80.98 13.88 q0.7 -0.2 1.82 -0.38 t2.48 -0.18 q1.28 0 2.14 0.35 t1.37 0.98 t0.72 1.52 t0.21 1.95 l0 5.88 l-2.42 0 l0 -5.5 q0 -0.84 -0.11 -1.43 t-0.36 -0.96 t-0.68 -0.54 t-1.05 -0.17 q-0.46 0 -0.96 0.06 t-0.74 0.1 l0 8.44 l-2.42 0 l0 -10.12 z M92.1 18.78 q0 -1.16 0.36 -2.17 t1.03 -1.75 t1.63 -1.16 t2.16 -0.42 q1.48 0 2.8 0.54 l-0.52 1.98 q-0.42 -0.18 -0.95 -0.3 t-1.13 -0.12 q-1.42 0 -2.16 0.89 t-0.74 2.51 q0 1.56 0.7 2.47 t2.36 0.91 q0.62 0 1.22 -0.12 t1.04 -0.3 l0.34 2 q-0.4 0.2 -1.21 0.36 t-1.67 0.16 q-1.34 0 -2.33 -0.41 t-1.64 -1.14 t-0.97 -1.74 t-0.32 -2.19 z M104.56 24 l-2.42 0 l0 -10.46 l2.42 0 l0 10.46 z M104.82 10.48 q0 0.68 -0.44 1.08 t-1.04 0.4 q-0.62 0 -1.06 -0.4 t-0.44 -1.08 q0 -0.7 0.44 -1.1 t1.06 -0.4 q0.6 0 1.04 0.4 t0.44 1.1 z M111.32 22.3 q1.12 0 1.7 -0.12 l0 -2.68 q-0.2 -0.06 -0.58 -0.12 t-0.84 -0.06 q-0.4 0 -0.81 0.06 t-0.74 0.22 t-0.53 0.45 t-0.2 0.73 q0 0.86 0.54 1.19 t1.46 0.33 z M111.11999999999999 13.28 q1.2 0 2.02 0.3 t1.31 0.84 t0.7 1.31 t0.21 1.69 l0 6.34 q-0.56 0.12 -1.69 0.29 t-2.55 0.17 q-0.94 0 -1.72 -0.18 t-1.33 -0.58 t-0.86 -1.04 t-0.31 -1.58 q0 -0.9 0.35 -1.52 t0.95 -1.01 t1.39 -0.56 t1.65 -0.17 q0.4 0 0.84 0.05 t0.94 0.17 l0 -0.4 q0 -0.42 -0.1 -0.8 t-0.35 -0.67 t-0.66 -0.45 t-1.03 -0.16 q-0.84 0 -1.54 0.12 t-1.14 0.28 l-0.3 -1.96 q0.46 -0.16 1.34 -0.32 t1.88 -0.16 z M121.96000000000001 24.2 q-1.08 -0.02 -1.79 -0.24 t-1.13 -0.63 t-0.59 -1.02 t-0.17 -1.39 l0 -12.04 l2.42 -0.4 l0 11.98 q0 0.44 0.07 0.74 t0.25 0.51 t0.49 0.32 t0.79 0.17 z"/></g><g id="SvgjsG1710" featureKey="text3" fill="#fff" transform="matrix(1.7169248742594705,0,0,1.7169248742594705,176.42879639253127,100.17413754216692)"><path d="M5.18 24 l-2.58 0 l-0.08 0 c-0.24 -0.02 -0.44 -0.22 -0.44 -0.48 l0 -13.04 c0 -0.26 0.22 -0.48 0.48 -0.48 l0.06 0 l2.56 0 c3.86 0 7 3.16 7 7.02 s-3.14 6.98 -7 6.98 z M3.06 23.02 l2.12 0 c3.32 0 6.02 -2.68 6.02 -6 c0 -3.34 -2.7 -6.02 -6.02 -6.04 l-2.12 0 l0 12.04 z M19.991329102404446 23.52 l0 -13.04 c0 -0.26 0.22 -0.48 0.48 -0.48 l0 0 c0.28 0 0.5 0.22 0.5 0.48 l0 0 l0 13.04 c0 0.26 -0.22 0.48 -0.5 0.48 l0 0 c-0.26 0 -0.48 -0.22 -0.48 -0.48 l0 0 z M39.70265820480889 17.7 l-3.82 0 c-0.28 0 -0.5 -0.2 -0.5 -0.48 s0.22 -0.5 0.5 -0.5 l4.32 0 l0.06 0 c0.24 0.02 0.44 0.24 0.44 0.5 l0 4.8 l0 0.08 c-0.02 0.14 -0.08 0.28 -0.18 0.36 c-1.24 0.98 -2.8 1.54 -4.52 1.54 c-4.02 -0.02 -7.28 -3.16 -7.28 -7.12 c0 -3.9 3.26 -7.08 7.28 -7.08 c1.74 0 3.28 0.6 4.54 1.58 c0.18 0.14 0.24 0.48 0.06 0.68 c-0.16 0.2 -0.46 0.24 -0.7 0.08 c-1.02 -0.84 -2.4 -1.36 -3.9 -1.36 c-3.5 0 -6.3 2.74 -6.3 6.1 c0 3.4 2.8 6.14 6.3 6.14 c1.36 0 2.66 -0.44 3.7 -1.2 l0 -4.12 z M49.15398730721334 23.52 l0 -13.04 c0 -0.26 0.22 -0.48 0.48 -0.48 l0 0 c0.28 0 0.5 0.22 0.5 0.48 l0 0 l0 13.04 c0 0.26 -0.22 0.48 -0.5 0.48 l0 0 c-0.26 0 -0.48 -0.22 -0.48 -0.48 l0 0 z M62.125316409617795 23.52 l0 -12.54 l-4.22 0 c-0.26 0 -0.48 -0.22 -0.48 -0.5 c0 -0.26 0.22 -0.48 0.48 -0.48 l9.4 0 c0.26 0 0.48 0.22 0.48 0.48 c0 0.28 -0.22 0.5 -0.48 0.5 l-4.22 0 l0 12.54 c0 0.26 -0.22 0.48 -0.48 0.48 s-0.48 -0.22 -0.48 -0.48 z M83.75664551202225 23.68 l-1.24 -3.3 l-6.38 0 l-1.24 3.3 c-0.08 0.2 -0.26 0.32 -0.46 0.32 c-0.04 0 -0.12 -0.02 -0.18 -0.02 c-0.24 -0.1 -0.38 -0.4 -0.28 -0.64 l4.86 -12.98 c0.08 -0.18 0.28 -0.3 0.48 -0.3 c0.22 0 0.42 0.12 0.48 0.3 l4.86 12.98 c0.1 0.24 -0.02 0.54 -0.26 0.64 c-0.08 0 -0.12 0.02 -0.18 0.02 c-0.18 0 -0.38 -0.12 -0.46 -0.32 z M79.33664551202224 11.88 l-2.84 7.52 l5.66 0 z M98.84797461442669 24 l-7.16 0 l-0.04 0 c-0.26 0 -0.48 -0.22 -0.48 -0.48 l0 -13.04 c0 -0.26 0.22 -0.48 0.48 -0.48 c0.28 0 0.5 0.22 0.5 0.48 l0 12.54 l6.7 0 c0.28 0 0.5 0.22 0.5 0.5 c0 0.26 -0.22 0.48 -0.5 0.48 z  M126.01063281923557 23.52 l0 -11.52 l-4.48 6.22 c-0.1 0.16 -0.26 0.22 -0.4 0.22 l-0.04 0 c-0.18 0 -0.32 -0.06 -0.42 -0.22 l-4.48 -6.2 l0 11.5 c0 0.26 -0.22 0.48 -0.48 0.48 c-0.28 0 -0.5 -0.22 -0.5 -0.48 l0 -12.96 c0 -0.16 0.08 -0.3 0.2 -0.38 c0 -0.02 0.02 -0.02 0.04 -0.04 c0.22 -0.14 0.52 -0.1 0.68 0.12 l4.98 6.9 l4.96 -6.9 c0.14 -0.22 0.46 -0.26 0.68 -0.12 c0.06 0.06 0.1 0.1 0.14 0.16 c0.04 0.08 0.08 0.18 0.08 0.26 l0 12.96 c0 0.26 -0.22 0.48 -0.48 0.48 c-0.28 0 -0.48 -0.22 -0.48 -0.48 z M134.86196192164002 16.9 c0.02 -3.92 2.98 -7.1 6.76 -7.1 l0 0 c3.74 0 6.68 3.18 6.7 7.1 l0 0 c-0.02 3.92 -2.96 7.1 -6.7 7.1 l0 0 c-3.78 0 -6.74 -3.18 -6.76 -7.1 l0 0 z M135.84196192164 16.9 c0 3.42 2.6 6.12 5.78 6.12 l0 0 c3.08 0 5.68 -2.7 5.7 -6.12 l0 0 c-0.02 -3.46 -2.62 -6.1 -5.7 -6.1 l0 0 c-3.18 0 -5.78 2.64 -5.78 6.1 l0 0 z M163.21329102404445 23.14 c-0.24 -0.46 -0.38 -1.12 -0.38 -2.3 c0 -1.02 -0.52 -1.66 -1.14 -2.12 c-0.62 -0.44 -1.36 -0.66 -1.62 -0.7 c-0.06 -0.02 -0.08 -0.04 -0.1 -0.04 l-3.4 0 l0 5.54 c0 0.26 -0.22 0.48 -0.5 0.48 c-0.26 0 -0.48 -0.22 -0.48 -0.48 l0 -13.04 c0 -0.24 0.2 -0.46 0.44 -0.48 l0.04 0 l0.06 0 l3.9 0 c2.2 0 3.98 1.78 3.98 4 c0 1.6 -0.94 2.98 -2.3 3.62 c0.06 0.04 0.12 0.06 0.2 0.1 c0.92 0.52 1.88 1.54 1.88 3.12 c0 0.82 0.08 1.32 0.18 1.62 c0.08 0.24 0.18 0.32 0.2 0.34 c0.22 -0.02 0.46 0.1 0.54 0.32 c0.06 0.26 -0.06 0.54 -0.32 0.64 c-0.02 0 -0.12 0.02 -0.24 0.02 l-0.04 0 c-0.26 0 -0.68 -0.2 -0.9 -0.64 z M163.05329102404446 14 c0 -1.68 -1.36 -3.02 -3.02 -3.02 l-3.46 0 l0 6.04 l3.36 0 l0.18 0 c1.62 -0.04 2.94 -1.38 2.94 -3.02 z M175.3846201264489 23.52 l0 -12.54 l-4.22 0 c-0.26 0 -0.48 -0.22 -0.48 -0.5 c0 -0.26 0.22 -0.48 0.48 -0.48 l9.4 0 c0.26 0 0.48 0.22 0.48 0.48 c0 0.28 -0.22 0.5 -0.48 0.5 l-4.22 0 l0 12.54 c0 0.26 -0.22 0.48 -0.48 0.48 s-0.48 -0.22 -0.48 -0.48 z M198.47594922885335 17.7 l-3.82 0 c-0.28 0 -0.5 -0.2 -0.5 -0.48 s0.22 -0.5 0.5 -0.5 l4.32 0 l0.06 0 c0.24 0.02 0.44 0.24 0.44 0.5 l0 4.8 l0 0.08 c-0.02 0.14 -0.08 0.28 -0.18 0.36 c-1.24 0.98 -2.8 1.54 -4.52 1.54 c-4.02 -0.02 -7.28 -3.16 -7.28 -7.12 c0 -3.9 3.26 -7.08 7.28 -7.08 c1.74 0 3.28 0.6 4.54 1.58 c0.18 0.14 0.24 0.48 0.06 0.68 c-0.16 0.2 -0.46 0.24 -0.7 0.08 c-1.02 -0.84 -2.4 -1.36 -3.9 -1.36 c-3.5 0 -6.3 2.74 -6.3 6.1 c0 3.4 2.8 6.14 6.3 6.14 c1.36 0 2.66 -0.44 3.7 -1.2 l0 -4.12 z M216.6872783312578 23.68 l-1.24 -3.3 l-6.38 0 l-1.24 3.3 c-0.08 0.2 -0.26 0.32 -0.46 0.32 c-0.04 0 -0.12 -0.02 -0.18 -0.02 c-0.24 -0.1 -0.38 -0.4 -0.28 -0.64 l4.86 -12.98 c0.08 -0.18 0.28 -0.3 0.48 -0.3 c0.22 0 0.42 0.12 0.48 0.3 l4.86 12.98 c0.1 0.24 -0.02 0.54 -0.26 0.64 c-0.08 0 -0.12 0.02 -0.18 0.02 c-0.18 0 -0.38 -0.12 -0.46 -0.32 z M212.2672783312578 11.88 l-2.84 7.52 l5.66 0 z M234.45860743366225 17.7 l-3.82 0 c-0.28 0 -0.5 -0.2 -0.5 -0.48 s0.22 -0.5 0.5 -0.5 l4.32 0 l0.06 0 c0.24 0.02 0.44 0.24 0.44 0.5 l0 4.8 l0 0.08 c-0.02 0.14 -0.08 0.28 -0.18 0.36 c-1.24 0.98 -2.8 1.54 -4.52 1.54 c-4.02 -0.02 -7.28 -3.16 -7.28 -7.12 c0 -3.9 3.26 -7.08 7.28 -7.08 c1.74 0 3.28 0.6 4.54 1.58 c0.18 0.14 0.24 0.48 0.06 0.68 c-0.16 0.2 -0.46 0.24 -0.7 0.08 c-1.02 -0.84 -2.4 -1.36 -3.9 -1.36 c-3.5 0 -6.3 2.74 -6.3 6.1 c0 3.4 2.8 6.14 6.3 6.14 c1.36 0 2.66 -0.44 3.7 -1.2 l0 -4.12 z M243.76993653606672 23.52 l0 -13.04 c0 -0.26 0.22 -0.48 0.48 -0.48 l0.04 0 l7.16 0 c0.28 0 0.48 0.22 0.48 0.48 c0 0.28 -0.2 0.5 -0.48 0.5 l-6.7 0 l0 5.54 l5.86 0 c0.26 0 0.48 0.22 0.48 0.5 c0 0.26 -0.22 0.48 -0.48 0.48 l-5.86 0 l0 5.52 l6.7 0 c0.28 0 0.48 0.22 0.48 0.5 c0 0.26 -0.2 0.48 -0.48 0.48 l-7.14 0 l-0.06 0 l-0.04 0 c-0.24 -0.02 -0.44 -0.22 -0.44 -0.48 z"/></g>
			</g>
		</svg>
	